<svg width="32" height="32" viewBox="0 0 32 32" fill="none" xmlns="http://www.w3.org/2000/svg">
<path d="M15.5484 31.1573C6.90464 31.1886 -0.207859 23.9948 0.00464134 15.1886C0.204641 6.81982 7.14214 -0.0989294 15.7671 0.00107059C24.3109 0.101071 31.3609 7.21357 31.1421 15.9886C30.9359 24.3323 24.0546 31.2073 15.5484 31.1573ZM13.7609 23.6886C12.9984 23.4448 12.2234 23.2636 11.5109 22.9448C10.0609 22.2948 9.14214 21.1698 8.84839 19.5886C8.66089 18.5636 8.73589 17.5323 8.86089 16.5073C8.97339 15.6011 9.23589 14.7573 9.92339 14.1011C9.97339 14.0511 9.97964 13.9073 9.94839 13.8323C9.61714 12.9261 9.65464 12.0198 9.92339 11.1011C10.0046 10.8261 10.1359 10.7948 10.3734 10.8698C10.9984 11.0636 11.5046 11.4386 11.9359 11.9136C12.1671 12.1636 12.3734 12.4386 12.5921 12.7011C13.8921 11.8573 17.6109 11.8573 18.9734 12.6886C19.2359 12.3823 19.4859 12.0636 19.7671 11.7698C20.1859 11.3386 20.6734 11.0073 21.2671 10.8448C21.4609 10.7886 21.5671 10.8323 21.6359 11.0386C21.9421 11.9448 21.9984 12.8511 21.6359 13.7573C21.5671 13.9386 21.5734 14.0573 21.7171 14.1948C22.1484 14.6073 22.4109 15.1261 22.5484 15.7073C22.8109 16.7886 22.8671 17.8948 22.7921 18.9948C22.7109 20.1761 22.2671 21.2136 21.3984 22.0448C20.6671 22.7386 19.7921 23.1511 18.8296 23.3948C18.4796 23.4823 18.1296 23.5448 17.7546 23.6198C18.2359 24.3573 18.3546 25.1573 18.3359 25.9948C18.3171 26.8886 18.3296 27.7886 18.3296 28.6823C18.3296 28.7886 18.3359 28.9011 18.3421 29.0136C24.0484 27.9761 29.8109 22.2948 29.1796 14.4261C28.5859 6.91982 21.9421 1.15732 14.2546 1.89482C7.07339 2.58232 1.31089 8.98858 1.96089 16.7511C2.57964 24.0948 8.52964 28.4948 13.1859 29.0698C13.1859 28.5386 13.1859 28.0073 13.1859 27.4698C12.9296 27.5073 12.6984 27.5386 12.4734 27.5636C10.7984 27.7511 9.46714 27.0011 8.72339 25.5073C8.31714 24.6886 7.88589 23.8698 7.08589 23.3448C6.99839 23.2886 6.94839 23.1823 6.87339 23.0886C6.94214 23.0386 6.97339 23.0136 7.01089 22.9948C7.06089 22.9761 7.11089 22.9698 7.16089 22.9636C7.72339 22.9261 8.25464 23.0261 8.67339 23.4198C8.94839 23.6761 9.19839 23.9823 9.40464 24.3011C10.1921 25.5323 11.5484 26.0511 12.9296 25.6386C13.1171 25.5823 13.2234 25.5011 13.2421 25.2823C13.2796 24.6948 13.4421 24.1386 13.7609 23.6886Z" fill="#FFBB00"/>
</svg>
