<svg width="42" height="42" viewBox="0 0 42 42" fill="none" xmlns="http://www.w3.org/2000/svg">
<path d="M5 0C2.25048 0 0 2.25048 0 5V37C0 39.7495 2.25048 42 5 42H37C39.7495 42 42 39.7495 42 37V5C42 2.25048 39.7495 0 37 0H5ZM5 2H37C38.6685 2 40 3.33152 40 5V37C40 38.6685 38.6685 40 37 40H5C3.33152 40 2 38.6685 2 37V5C2 3.33152 3.33152 2 5 2ZM10 7.01172C8.90478 7.01172 7.91922 7.33908 7.18945 7.95312C6.45969 8.56717 6.01172 9.48451 6.01172 10.4668C6.01172 12.334 7.63129 13.7896 9.69141 13.9336L9.69531 13.9355C9.79348 13.969 9.8963 13.9868 10 13.9883C12.273 13.9883 13.9883 12.3961 13.9883 10.4668C13.9881 10.4492 13.9874 10.4316 13.9863 10.4141C13.8846 8.51383 12.1904 7.01172 10 7.01172ZM10 8.98828C11.3922 8.98828 11.942 9.61004 12.002 10.4922C11.9898 11.3484 11.4601 12.0117 10 12.0117C8.61459 12.0117 7.98828 11.3022 7.98828 10.4668C7.98828 10.0491 8.1407 9.7343 8.46094 9.46484C8.78117 9.19539 9.29522 8.98828 10 8.98828ZM7 15C6.73479 15 6.48045 15.1054 6.29292 15.2929C6.10539 15.4805 6.00003 15.7348 6 16V35C6.00003 35.2652 6.10539 35.5195 6.29292 35.7071C6.48045 35.8946 6.73479 36 7 36H13C13.2652 36 13.5195 35.8946 13.7071 35.7071C13.8946 35.5195 14 35.2652 14 35V29.1348V16C14 15.7348 13.8946 15.4805 13.7071 15.2929C13.5195 15.1054 13.2652 15 13 15H7ZM16 15C15.7348 15 15.4805 15.1054 15.2929 15.2929C15.1054 15.4805 15 15.7348 15 16V35C15 35.2652 15.1054 35.5195 15.2929 35.7071C15.4805 35.8946 15.7348 36 16 36H22C22.2652 36 22.5195 35.8946 22.7071 35.7071C22.8946 35.5195 23 35.2652 23 35V25C23 24.1703 23.2264 23.345 23.625 22.8047C24.0236 22.2643 24.5265 21.9401 25.4824 21.957C26.4682 21.974 26.99 22.3117 27.3848 22.8418C27.7795 23.3719 28 24.1667 28 25V35C28 35.2652 28.1054 35.5195 28.2929 35.7071C28.4805 35.8946 28.7348 36 29 36H35C35.2652 36 35.5195 35.8946 35.7071 35.7071C35.8946 35.5195 36 35.2652 36 35V24.2617C36 21.3002 35.1228 18.9543 33.6191 17.3672C32.1155 15.78 30.0242 15 27.8125 15C25.7105 15 24.1109 15.7049 23 16.4238V16C23 15.7348 22.8946 15.4805 22.7071 15.2929C22.5195 15.1054 22.2652 15 22 15H16ZM8 17H12V29.1348V34H8V17ZM17 17H21V18.5605C21.0001 18.7702 21.066 18.9746 21.1886 19.1447C21.3111 19.3149 21.4841 19.4422 21.6829 19.5087C21.8818 19.5752 22.0965 19.5775 22.2968 19.5153C22.497 19.4531 22.6726 19.3296 22.7988 19.1621C22.7988 19.1621 24.3692 17 27.8125 17C29.5658 17 31.0694 17.5826 32.168 18.7422C33.2666 19.9018 34 21.6883 34 24.2617V34H30V25C30 23.8333 29.7205 22.6271 28.9902 21.6465C28.26 20.6659 27.0318 19.9831 25.5176 19.957C23.9955 19.93 22.7475 20.627 22.0156 21.6191C21.2837 22.6113 21 23.8297 21 25V34H17V17Z" fill="#FFBB00"/>
</svg>
