<svg width="129" height="22" viewBox="0 0 129 22" fill="none" xmlns="http://www.w3.org/2000/svg">
<path d="M7.204 21.336C5.99067 21.336 4.824 20.888 3.704 19.992C2.60267 19.0773 1.716 17.836 1.044 16.268C0.372 14.7 0.036 12.9733 0.036 11.088C0.036 9.22133 0.353333 7.54133 0.988 6.048C1.64133 4.55467 2.472 3.388 3.48 2.548C4.488 1.708 5.524 1.288 6.588 1.288C7.91333 1.288 8.97733 1.568 9.78 2.128C10.6013 2.66933 11.1893 3.192 11.544 3.696C11.6187 3.808 11.684 3.91067 11.74 4.004C11.8147 4.09733 11.852 4.19067 11.852 4.284C11.852 4.396 11.7493 4.54533 11.544 4.732C10.6853 5.404 10.0693 5.992 9.696 6.496C9.50933 6.73867 9.35067 6.92533 9.22 7.056C9.08933 7.168 8.95867 7.224 8.828 7.224C8.69733 7.224 8.548 7.13067 8.38 6.944C7.988 6.51467 7.68 6.216 7.456 6.048C7.25067 5.86133 6.99867 5.768 6.7 5.768C6.23333 5.768 5.76667 5.964 5.3 6.356C4.852 6.748 4.46933 7.40133 4.152 8.316C3.83467 9.212 3.676 10.3693 3.676 11.788C3.676 13.1693 3.872 14.2707 4.264 15.092C4.67467 15.8947 5.132 16.4547 5.636 16.772C6.15867 17.0893 6.60667 17.248 6.98 17.248C7.316 17.248 7.66133 17.136 8.016 16.912C8.37067 16.6693 8.67867 16.4173 8.94 16.156C8.97733 16.1187 9.03333 16.0533 9.108 15.96C9.20133 15.8667 9.28533 15.82 9.36 15.82C9.45333 15.82 9.56533 15.8573 9.696 15.932L12.076 17.248C12.1507 17.2853 12.2627 17.3413 12.412 17.416C12.58 17.472 12.692 17.528 12.748 17.584C12.8227 17.64 12.86 17.7147 12.86 17.808C12.86 17.9013 12.832 18.004 12.776 18.116C12.3653 18.8067 11.7213 19.516 10.844 20.244C9.96667 20.972 8.75333 21.336 7.204 21.336ZM13.7182 21C13.5502 21 13.5035 20.8787 13.5782 20.636C13.5782 20.58 13.5875 20.5333 13.6062 20.496C13.6062 20.4587 13.6155 20.412 13.6342 20.356C13.6528 20.3 13.6808 20.216 13.7182 20.104L13.9702 19.068C14.0075 18.956 14.0728 18.76 14.1662 18.48C14.2595 18.2 14.3248 17.9387 14.3622 17.696C14.4555 17.248 14.6328 16.5667 14.8942 15.652L15.1182 14.868C15.4728 13.7107 15.6968 12.8987 15.7902 12.432L16.1822 10.948C16.3688 10.332 16.4808 9.94 16.5182 9.772C16.6488 9.212 16.8355 8.512 17.0782 7.672L17.2742 6.888L17.4422 6.3C17.6288 5.66533 17.7875 5.208 17.9182 4.928C17.9555 4.816 18.0862 4.43333 18.3102 3.78C18.5528 3.108 18.7115 2.576 18.7862 2.184C18.9168 1.736 19.0475 1.4 19.1782 1.176C19.3275 0.951999 19.5235 0.839999 19.7662 0.839999C19.8595 0.839999 19.9528 0.923999 20.0462 1.092C20.1395 1.26 20.2328 1.46533 20.3262 1.708C20.4195 1.95067 20.4848 2.128 20.5222 2.24C20.6715 2.59467 20.9328 3.48133 21.3062 4.9L21.5302 5.684C21.5488 5.83333 21.8568 6.748 22.4542 8.428L22.9862 9.968L23.4902 11.284C24.0128 12.7587 24.3488 13.6547 24.4982 13.972C25.1515 15.9507 25.5342 17.1453 25.6462 17.556C25.7768 18.0413 25.9822 18.648 26.2622 19.376C26.5608 20.104 26.7288 20.5147 26.7662 20.608C26.8222 20.7387 26.8502 20.832 26.8502 20.888C26.8502 20.9627 26.7475 21 26.5422 21H24.9742C24.8995 21 24.8342 20.9907 24.7782 20.972C24.7408 20.9347 24.7035 20.86 24.6662 20.748C24.5915 20.5427 24.4888 20.2067 24.3582 19.74C24.1902 19.2733 24.0782 18.8533 24.0222 18.48C23.9662 18.2 23.8728 17.864 23.7422 17.472C23.6302 17.08 23.5275 16.7813 23.4342 16.576C23.2662 16.2213 23.1168 15.82 22.9862 15.372L22.7342 14.56C22.6408 14.3547 22.5662 14.2333 22.5102 14.196C22.4728 14.14 22.3982 14.112 22.2862 14.112C21.8942 14.112 21.6048 14.1213 21.4182 14.14L20.2142 14.196C20.0648 14.2147 19.3742 14.224 18.1422 14.224H16.4342H16.3782C16.2662 14.224 16.1822 14.3267 16.1262 14.532L16.0702 14.812L15.9582 15.344C15.9208 15.456 15.7995 15.9973 15.5942 16.968C15.5382 17.2853 15.4448 17.696 15.3142 18.2C15.2768 18.5733 15.1928 18.8813 15.0622 19.124C15.0248 19.18 14.9782 19.3107 14.9222 19.516C14.8662 19.7213 14.8195 19.8893 14.7822 20.02C14.7262 20.1693 14.6608 20.412 14.5862 20.748C14.5675 20.7667 14.5488 20.8133 14.5302 20.888C14.5115 20.944 14.4835 20.9813 14.4462 21C14.4088 21 14.3528 21 14.2782 21H13.7182ZM19.0662 12.32C19.2902 12.2827 19.6075 12.264 20.0182 12.264L21.5302 12.292C21.7728 12.292 21.8942 12.2267 21.8942 12.096C21.8942 12.0027 21.8288 11.7973 21.6982 11.48C21.5862 11.2 21.4182 10.6773 21.1942 9.912C21.0262 9.296 20.8582 8.764 20.6902 8.316C20.5035 7.756 20.2982 7.09333 20.0742 6.328C19.8688 5.56267 19.7475 5.068 19.7102 4.844C19.4302 3.85467 19.2435 3.36 19.1502 3.36C19.0942 3.36 19.0008 3.612 18.8702 4.116L18.7022 4.732C18.5715 5.236 18.4035 5.87067 18.1982 6.636C17.9928 7.38267 17.8062 8.01733 17.6382 8.54C17.5262 9.02533 17.3675 9.64133 17.1622 10.388C16.9755 11.116 16.8262 11.62 16.7142 11.9C16.6768 12.012 16.6582 12.0773 16.6582 12.096C16.6582 12.2267 16.7142 12.3107 16.8262 12.348C16.9568 12.3853 17.0782 12.404 17.1902 12.404C17.3208 12.3853 17.4048 12.376 17.4422 12.376L19.0662 12.32ZM34.2032 21C33.2512 21 32.3739 20.86 31.5712 20.58C30.7872 20.3 30.1899 19.9547 29.7792 19.544C29.2379 19.1333 28.8179 18.564 28.5192 17.836C28.2206 17.108 28.0712 16.1187 28.0712 14.868C28.0712 13.8227 28.5566 12.74 29.5272 11.62C29.9566 11.116 30.4512 10.6493 31.0112 10.22C30.5446 9.86533 30.1339 9.42667 29.7792 8.904C28.9579 7.76533 28.5472 6.412 28.5472 4.844C28.5472 2.97733 29.0326 1.77333 30.0032 1.232C30.9739 0.690666 31.9539 0.42 32.9432 0.42C33.7086 0.42 34.4086 0.606666 35.0432 0.979999C35.6779 1.35333 36.1819 1.91333 36.5552 2.66C36.9472 3.40667 37.1432 4.29333 37.1432 5.32C37.1432 6.62667 36.6486 7.924 35.6592 9.212C35.2672 9.73467 34.7819 10.2387 34.2032 10.724L36.3872 12.908C36.5926 13.0387 36.9286 13.3467 37.3952 13.832C37.8806 14.3173 38.1886 14.6253 38.3192 14.756L39.6632 16.24L39.9432 15.82C40.1672 15.428 40.3259 15.0733 40.4192 14.756C40.5499 14.3453 40.6152 13.86 40.6152 13.3C40.6152 12.7587 40.6246 12.432 40.6432 12.32C40.6806 12.1893 40.7739 12.096 40.9232 12.04C41.1472 11.9653 41.3526 11.928 41.5392 11.928C41.6886 11.928 41.8379 11.9933 41.9872 12.124C42.1552 12.2547 42.2486 12.404 42.2672 12.572L42.2952 12.936C42.2952 12.9733 42.2859 13.048 42.2672 13.16C42.2672 13.2533 42.2672 13.496 42.2672 13.888C42.2672 14.4107 42.0246 15.1387 41.5392 16.072C41.3712 16.4453 41.1286 16.8653 40.8112 17.332L41.3992 17.92L42.1832 18.676C42.3699 18.8253 42.4632 19.0307 42.4632 19.292C42.4632 19.4227 42.4072 19.5347 42.2952 19.628C42.2392 19.6653 42.1739 19.7307 42.0992 19.824C42.0246 19.8987 41.8939 19.992 41.7072 20.104C41.5952 20.2347 41.4832 20.3 41.3712 20.3C41.2219 20.3 41.0632 20.2067 40.8952 20.02C40.7459 19.8333 40.6526 19.7213 40.6152 19.684C40.5406 19.6093 40.4659 19.5253 40.3912 19.432C40.3166 19.3387 40.2326 19.2453 40.1392 19.152L39.8312 18.788C39.4579 19.18 38.9819 19.5533 38.4032 19.908C37.1339 20.636 35.7339 21 34.2032 21ZM32.7192 9.24C32.9059 9.24 33.2419 9.03467 33.7272 8.624C34.2312 8.21333 34.6792 7.70933 35.0712 7.112C35.4632 6.51467 35.6592 5.91733 35.6592 5.32C35.6592 4.312 35.4166 3.49067 34.9312 2.856C34.4646 2.22133 33.8112 1.904 32.9712 1.904C32.6166 1.904 32.2246 1.99733 31.7952 2.184C31.3846 2.352 31.0299 2.62267 30.7312 2.996C30.4326 3.36933 30.2832 3.81733 30.2832 4.34C30.2832 5.236 30.3299 5.936 30.4232 6.44C30.5352 6.944 30.8152 7.46667 31.2632 8.008C31.4872 8.232 31.7112 8.47467 31.9352 8.736C32.1406 8.94133 32.2806 9.08133 32.3552 9.156C32.4486 9.212 32.5699 9.24 32.7192 9.24ZM33.9512 19.544C35.4632 19.544 36.5086 19.4133 37.0872 19.152C37.6659 18.872 38.0112 18.6387 38.1232 18.452C38.2539 18.2467 38.3286 18.1253 38.3472 18.088C38.4032 17.9947 38.4312 17.9107 38.4312 17.836C38.4312 17.7053 38.2446 17.4533 37.8712 17.08C37.7779 16.9867 37.2086 16.4267 36.1632 15.4C35.1179 14.3547 34.4646 13.608 34.2032 13.16C34.0912 13.0667 33.9046 12.8707 33.6432 12.572C33.2886 12.1987 33.0086 11.9187 32.8032 11.732C32.5979 11.5453 32.4112 11.452 32.2432 11.452C32.1312 11.452 31.8419 11.6387 31.3752 12.012C30.9086 12.3853 30.4792 12.852 30.0872 13.412C29.7139 13.972 29.5272 14.5413 29.5272 15.12C29.4712 15.96 29.5926 16.6973 29.8912 17.332C30.2086 17.9853 30.6752 18.5173 31.2912 18.928C31.9259 19.3387 32.8126 19.544 33.9512 19.544ZM50.7814 21.616C48.1121 21.616 46.3387 20.496 45.4614 18.256C44.5841 15.9973 44.1454 13.58 44.1454 11.004C44.1454 8.52133 44.4814 6.53333 45.1534 5.04C45.8441 3.54667 46.6747 2.50133 47.6454 1.904C48.6347 1.30667 49.6147 1.008 50.5854 1.008C52.4521 1.008 53.8521 1.54933 54.7854 2.632C55.7187 3.696 56.3161 4.96533 56.5774 6.44C56.8387 7.896 56.9694 9.548 56.9694 11.396C56.9694 12.8893 56.7454 14.4293 56.2974 16.016C55.8494 17.584 55.1587 18.9093 54.2254 19.992C53.2921 21.0747 52.1441 21.616 50.7814 21.616ZM50.5574 14.504C51.0614 14.504 51.4347 14.224 51.6774 13.664C51.9201 13.104 52.0414 12.432 52.0414 11.648C52.0414 10.9013 51.9201 10.248 51.6774 9.688C51.4534 9.128 51.1454 8.848 50.7534 8.848C50.2867 8.848 49.9321 9.17467 49.6894 9.828C49.4654 10.4627 49.3534 11.1533 49.3534 11.9C49.3534 12.6653 49.4281 13.2907 49.5774 13.776C49.7267 14.2613 50.0534 14.504 50.5574 14.504ZM67.9653 21.196C67.6666 21.196 67.4613 21.1027 67.3493 20.916C67.2373 20.7293 67.1813 20.468 67.1813 20.132L67.2093 13.916V12.572C67.2093 11.8627 67.2373 11.2187 67.2933 10.64L67.3773 7.224C67.3773 6.832 67.3866 6.25333 67.4053 5.488C67.424 4.704 67.4426 4.20933 67.4613 4.004C67.48 3.85467 67.4893 3.59333 67.4893 3.22C67.4893 2.56667 67.4613 2.1 67.4053 1.82C67.3866 1.78267 67.3773 1.736 67.3773 1.68C67.3773 1.568 67.48 1.484 67.6853 1.428C67.872 1.372 68.3666 1.29733 69.1693 1.204C69.972 1.092 70.7 1.036 71.3533 1.036C73.1266 1.036 74.5266 1.39067 75.5533 2.1C76.5986 2.80933 77.1213 4.15333 77.1213 6.132C77.1213 7.924 76.58 9.324 75.4973 10.332C75.012 10.7427 74.48 11.0507 73.9013 11.256C74.984 11.648 76.0946 12.3107 77.2333 13.244C78.3906 14.1587 78.9693 15.5307 78.9693 17.36C78.9693 18.5547 78.54 19.432 77.6813 19.992C76.8413 20.5333 75.9826 20.86 75.1053 20.972C74.2466 21.0653 73.3413 21.112 72.3893 21.112L69.6733 21.168L67.9653 21.196ZM70.9893 10.892C71.3626 10.892 71.9413 10.7893 72.7253 10.584C73.5093 10.3787 74.2653 9.94 74.9933 9.268C75.7213 8.596 76.0853 7.62533 76.0853 6.356C76.0853 5.012 75.852 4.01333 75.3853 3.36C74.9186 2.70667 74.3306 2.296 73.6213 2.128C72.9306 1.94133 72.044 1.848 70.9613 1.848L70.9053 3.64C70.868 4.984 70.8493 5.98267 70.8493 6.636V9.828C70.8493 10.0147 70.84 10.1827 70.8213 10.332C70.8026 10.4627 70.7933 10.5653 70.7933 10.64C70.7933 10.752 70.8026 10.8267 70.8213 10.864C70.84 10.8827 70.896 10.892 70.9893 10.892ZM71.7173 20.58C73.5466 20.58 74.9186 20.2907 75.8333 19.712C76.748 19.1147 77.2053 18.3213 77.2053 17.332C77.2053 14.8307 76.132 13.132 73.9853 12.236C73.0333 11.8813 71.96 11.7133 70.7653 11.732C70.7466 11.788 70.7373 11.8627 70.7373 11.956C70.7186 12.0493 70.7093 12.264 70.7093 12.6L70.7653 14.392L70.8213 15.904C70.8213 16.1653 70.812 16.352 70.7933 16.464L70.7653 17.192L70.8213 18.844L70.8773 20.132C70.8773 20.356 70.9146 20.496 70.9893 20.552C71.0826 20.5893 71.204 20.608 71.3533 20.608C71.5213 20.5893 71.6426 20.58 71.7173 20.58ZM81.7054 21.196C81.6308 21.196 81.5094 21.196 81.3414 21.196C81.1921 21.196 81.0988 21.1773 81.0614 21.14C81.0241 21.1027 81.0054 21.028 81.0054 20.916L81.0334 20.02L81.0894 16.352L81.1454 10.472C81.1454 9.912 81.1828 8.64267 81.2574 6.664C81.2761 6.19733 81.3041 5.44133 81.3414 4.396C81.3788 3.332 81.3788 2.70667 81.3414 2.52L81.3134 1.932C81.3134 1.44667 81.4628 1.204 81.7614 1.204L82.7974 1.232C82.9841 1.232 83.0774 1.36267 83.0774 1.624C83.0774 1.71733 83.0681 1.82933 83.0494 1.96C83.0308 2.072 83.0214 2.184 83.0214 2.296C82.9654 2.70667 82.9188 3.76133 82.8814 5.46C82.8814 5.98267 82.8441 7.308 82.7694 9.436C82.6948 11.4893 82.6574 12.74 82.6574 13.188C82.6574 14.2707 82.6761 15.6427 82.7134 17.304C82.7508 18.9467 82.7881 19.9267 82.8254 20.244C82.8441 20.356 82.8534 20.4867 82.8534 20.636C82.8534 20.7667 82.8254 20.86 82.7694 20.916C82.7321 20.972 82.6668 21.028 82.5734 21.084C82.4614 21.1587 82.1721 21.196 81.7054 21.196ZM96.6104 21.224C96.1437 21.2427 95.7797 21.14 95.5184 20.916C95.4624 20.86 95.3224 20.7293 95.0984 20.524C94.8931 20.3187 94.6877 20.104 94.4824 19.88C93.9224 19.2827 93.2784 18.62 92.5504 17.892C92.3451 17.6867 92.1024 17.472 91.8224 17.248L90.9544 16.464L89.8904 15.568V17.92C89.8904 18.3307 89.9184 18.8067 89.9744 19.348L90.0304 20.608C90.0304 20.7947 89.9931 20.9067 89.9184 20.944C89.8437 20.9813 89.7597 21 89.6664 21C89.5917 21 89.5357 21 89.4984 21L88.9384 20.972L88.0144 20.916L86.7824 20.972L85.8584 21C85.7277 21 85.6437 20.9627 85.6064 20.888C85.5877 20.8133 85.5784 20.636 85.5784 20.356L85.5504 13.496V10.864C85.5504 8.64267 85.5317 7.32667 85.4944 6.916C85.4757 6.692 85.4664 6.33733 85.4664 5.852L85.4944 4.004L85.5224 1.792C85.5224 1.624 85.6157 1.54 85.8024 1.54C85.9144 1.54 86.0171 1.55867 86.1104 1.596C86.2224 1.61467 86.3251 1.624 86.4184 1.624L89.6104 1.652C89.7971 1.652 89.9184 1.68933 89.9744 1.764C90.0304 1.82 90.0584 1.91333 90.0584 2.044C90.0584 2.11867 90.0584 2.25867 90.0584 2.464C90.0771 2.65067 90.0864 2.968 90.0864 3.416C90.0864 3.584 90.0677 3.864 90.0304 4.256C89.9931 4.648 89.9651 4.97467 89.9464 5.236C89.8344 6.28133 89.7784 6.96267 89.7784 7.28V9.128C89.7784 9.632 89.7877 10.024 89.8064 10.304C90.0677 10.024 90.2917 9.744 90.4784 9.464L91.5144 8.12C91.9624 7.54133 92.4944 6.82267 93.1104 5.964C93.7264 5.10533 94.2024 4.43333 94.5384 3.948C94.5571 3.92933 94.7344 3.70533 95.0704 3.276C95.1264 3.20133 95.3037 2.98667 95.6024 2.632C95.9011 2.25867 96.0784 1.97867 96.1344 1.792C96.1904 1.624 96.2651 1.52133 96.3584 1.484C96.4704 1.44667 96.5824 1.428 96.6944 1.428C96.8064 1.40933 96.8904 1.4 96.9464 1.4C97.1517 1.4 97.3571 1.39067 97.5624 1.372C97.7677 1.35333 97.9544 1.33467 98.1224 1.316H98.2344C98.5704 1.316 98.7384 1.38133 98.7384 1.512C98.7384 1.58667 98.6917 1.67067 98.5984 1.764C98.5237 1.83867 98.4771 1.88533 98.4584 1.904C98.1784 2.22133 97.7584 2.72533 97.1984 3.416C96.6384 4.088 96.1531 4.68533 95.7424 5.208C95.3131 5.824 94.7064 6.65467 93.9224 7.7C93.1571 8.74533 92.6811 9.38 92.4944 9.604C92.3077 9.828 92.0184 10.2573 91.6264 10.892C91.2531 11.5267 91.0664 11.8813 91.0664 11.956C91.0664 12.0493 91.1504 12.18 91.3184 12.348C91.5051 12.516 91.6637 12.6653 91.7944 12.796C91.9624 13.0013 92.2891 13.3653 92.7744 13.888C93.2597 14.392 93.6424 14.784 93.9224 15.064L94.5104 15.708C95.6304 16.9773 96.4144 17.808 96.8624 18.2C97.3477 18.648 97.8704 19.18 98.4304 19.796C99.0091 20.3933 99.3451 20.7387 99.4384 20.832L99.4944 20.944C99.4944 21.0187 99.4291 21.0747 99.2984 21.112C99.1864 21.168 99.0651 21.1773 98.9344 21.14L98.0384 21.168L96.6104 21.224ZM112.227 20.944C112.022 20.944 111.854 20.9347 111.723 20.916C111.219 20.86 110.202 20.832 108.671 20.832C107.738 20.832 107.066 20.8413 106.655 20.86C106.338 20.8787 105.815 20.888 105.087 20.888L102.483 20.86C102.184 20.8413 101.83 20.832 101.419 20.832C101.158 20.832 100.98 20.804 100.887 20.748C100.812 20.6733 100.775 20.5613 100.775 20.412L100.803 19.964C100.822 19.8893 100.831 19.8053 100.831 19.712C100.831 19.656 100.822 19.5253 100.803 19.32C100.784 19.096 100.775 18.6947 100.775 18.116C100.775 17.556 100.756 16.6413 100.719 15.372C100.663 14.3267 100.635 13.3187 100.635 12.348C100.635 11.9373 100.682 10.752 100.775 8.792C100.794 8.4 100.812 8.008 100.831 7.616C100.85 7.224 100.859 6.86933 100.859 6.552C100.859 4.38667 100.831 2.95867 100.775 2.268C100.719 1.82 100.99 1.596 101.587 1.596C101.736 1.596 101.979 1.61467 102.315 1.652C102.614 1.68933 102.838 1.708 102.987 1.708L104.751 1.652C106.02 1.57733 107 1.54 107.691 1.54C108.494 1.54 109.623 1.55867 111.079 1.596C111.546 1.61467 112.04 1.624 112.563 1.624C112.787 1.624 112.927 1.68 112.983 1.792C113.039 1.904 113.058 2.02533 113.039 2.156C113.039 2.268 113.039 2.34267 113.039 2.38V2.688C113.039 3.11733 113.002 3.332 112.927 3.332C112.815 3.332 112.684 3.32267 112.535 3.304C112.404 3.26667 112.236 3.248 112.031 3.248L104.079 3.22C103.967 3.22 103.547 3.248 102.819 3.304L102.175 3.36L102.119 4.116C102.1 4.396 102.091 4.83467 102.091 5.432C102.091 5.73067 102.11 6.12267 102.147 6.608C102.184 7.056 102.203 7.38267 102.203 7.588V8.708C102.203 9.00667 102.212 9.24 102.231 9.408C102.399 9.42667 102.651 9.436 102.987 9.436H104.107C104.219 9.436 104.443 9.41733 104.779 9.38C105.264 9.34267 105.684 9.324 106.039 9.324C106.188 9.324 106.711 9.352 107.607 9.408L108.223 9.436C108.372 9.436 108.587 9.42667 108.867 9.408C109.147 9.37067 109.418 9.352 109.679 9.352L110.603 9.38C111.088 9.41733 111.424 9.436 111.611 9.436C111.816 9.436 111.956 9.42667 112.031 9.408L112.199 9.38C112.33 9.38 112.423 9.42667 112.479 9.52C112.535 9.59467 112.554 9.66933 112.535 9.744C112.516 9.87467 112.507 10.0427 112.507 10.248C112.507 10.4347 112.498 10.6027 112.479 10.752C112.46 10.9013 112.432 10.9947 112.395 11.032C112.358 11.0507 112.246 11.06 112.059 11.06L110.939 10.948C109.539 10.8173 108.624 10.752 108.195 10.752C106.608 10.752 105.442 10.78 104.695 10.836C104.396 10.8733 104.07 10.892 103.715 10.892C103.36 10.892 103.136 10.892 103.043 10.892C102.688 10.892 102.427 10.8827 102.259 10.864L102.175 11.312C102.138 11.648 102.119 11.9467 102.119 12.208C102.119 12.432 102.138 12.6933 102.175 12.992C102.212 13.2907 102.231 13.552 102.231 13.776L102.259 17.108L102.231 18.508C102.212 18.676 102.203 18.9093 102.203 19.208C102.446 19.2267 102.8 19.236 103.267 19.236C103.659 19.2547 104.266 19.264 105.087 19.264L106.599 19.292C106.916 19.3107 107.402 19.32 108.055 19.32C108.447 19.32 108.96 19.3013 109.595 19.264L110.771 19.236C111.219 19.236 111.592 19.2453 111.891 19.264C112.19 19.2827 112.414 19.292 112.563 19.292C112.712 19.292 112.796 19.32 112.815 19.376C112.852 19.432 112.871 19.5533 112.871 19.74C112.871 19.8707 112.862 20.0107 112.843 20.16C112.824 20.2907 112.815 20.44 112.815 20.608C112.815 20.7387 112.768 20.832 112.675 20.888C112.582 20.9253 112.432 20.944 112.227 20.944ZM121.264 21.588C118.576 21.588 116.868 21.0747 116.14 20.048C115.412 19.0027 115.029 18.4613 114.992 18.424C114.917 18.3307 114.88 18.2373 114.88 18.144C114.88 18.088 114.954 17.9667 115.104 17.78C115.346 17.444 115.701 17.0427 116.168 16.576C116.242 16.5013 116.317 16.464 116.392 16.464C116.485 16.464 116.588 16.5387 116.7 16.688C116.812 16.8187 116.905 16.9213 116.98 16.996C118.081 18.0973 119.332 18.648 120.732 18.648C121.441 18.648 122.057 18.5173 122.58 18.256C123.102 17.976 123.364 17.4627 123.364 16.716C123.364 15.428 122.346 14.056 120.312 12.6C119.976 12.376 119.658 12.1893 119.36 12.04C118.576 11.6107 117.904 11.1907 117.344 10.78C116.784 10.3693 116.289 9.828 115.86 9.156C115.43 8.484 115.216 7.7 115.216 6.804C115.216 5.684 115.561 4.676 116.252 3.78C116.961 2.884 117.801 2.184 118.772 1.68C119.761 1.176 120.62 0.924 121.348 0.924C123.121 0.924 124.577 1.27867 125.716 1.988C126.873 2.67867 127.769 3.34133 128.404 3.976C128.478 4.05067 128.516 4.13467 128.516 4.228C128.516 4.284 128.488 4.35867 128.432 4.452C128.394 4.52667 128.366 4.58267 128.348 4.62C128.254 4.75067 128.096 4.984 127.872 5.32C127.666 5.63733 127.498 5.87067 127.368 6.02C127.312 6.09467 127.246 6.17867 127.172 6.272C127.116 6.34667 127.06 6.40267 127.004 6.44C126.966 6.47733 126.901 6.496 126.808 6.496C126.77 6.496 126.677 6.44 126.528 6.328C126.397 6.19733 126.266 6.08533 126.136 5.992C125.389 5.33867 124.661 4.77867 123.952 4.312C123.242 3.84533 122.561 3.612 121.908 3.612C121.385 3.612 120.956 3.73333 120.62 3.976C120.284 4.2 120.116 4.72267 120.116 5.544C120.116 6.34667 120.414 6.972 121.012 7.42C121.609 7.868 122.402 8.29733 123.392 8.708C123.485 8.74533 124.026 8.97867 125.016 9.408C126.024 9.83733 126.91 10.6587 127.676 11.872C128.46 13.0853 128.852 14.532 128.852 16.212C128.852 18.004 128.18 19.348 126.836 20.244C125.492 21.14 123.634 21.588 121.264 21.588Z" fill="black"/>
</svg>
